<?xml version="1.0" encoding="UTF-8" standalone="no"?>
<!-- Created with Inkscape (http://www.inkscape.org/) -->

<svg
   version="1.1"
   id="svg339"
   width="254.87883"
   height="239.95561"
   viewBox="0 0 254.87883 239.95561"
   sodipodi:docname="jelen1b.svg"
   inkscape:version="1.2.2 (732a01da63, 2022-12-09, custom)"
   xmlns:inkscape="http://www.inkscape.org/namespaces/inkscape"
   xmlns:sodipodi="http://sodipodi.sourceforge.net/DTD/sodipodi-0.dtd"
   xmlns="http://www.w3.org/2000/svg"
   xmlns:svg="http://www.w3.org/2000/svg">
  <defs
     id="defs343" />
  <sodipodi:namedview
     id="namedview341"
     pagecolor="#ffffff"
     bordercolor="#000000"
     borderopacity="0.25"
     inkscape:showpageshadow="2"
     inkscape:pageopacity="0.0"
     inkscape:pagecheckerboard="0"
     inkscape:deskcolor="#d1d1d1"
     showgrid="false"
     inkscape:zoom="2.5585347"
     inkscape:cx="110.61019"
     inkscape:cy="156.92576"
     inkscape:window-width="1846"
     inkscape:window-height="1016"
     inkscape:window-x="0"
     inkscape:window-y="0"
     inkscape:window-maximized="1"
     inkscape:current-layer="layer1" />
  <g
     inkscape:groupmode="layer"
     id="layer1"
     inkscape:label="Layer 1">
    <path
       id="path349"
       style="fill:#000000;stroke-width:0.48"
       d="M 172.8243 2.4483081 C 172.22615 2.4667504 171.83992 2.5506532 171.83992 2.7197924 C 171.83992 2.9721874 172.21777 3.5986381 172.67977 4.1104174 C 173.14177 4.6221965 173.7971 5.5793249 174.13484 6.2393237 C 174.76768 7.4759514 176.22047 12.57948 176.00203 12.797917 C 175.77175 13.028198 170.19064 11.436535 168.91414 10.776433 C 168.21416 10.414458 166.69647 9.2358531 165.54109 8.1572924 C 164.38574 7.0787312 162.29847 5.6360266 160.90242 4.9522143 C 158.76052 3.9030619 157.94394 3.7530823 155.67391 3.9873706 C 151.91698 4.3751181 151.53993 4.9900377 154.25203 6.307683 C 156.52884 7.4138384 157.24666 8.2710361 155.51961 7.8194018 C 154.68826 7.6019991 154.56063 7.8040123 154.56063 9.3311205 C 154.56063 11.215045 153.94443 14.211261 152.81063 17.838933 L 152.10945 20.077214 L 148.17586 17.143621 C 143.6754 13.788017 137.76588 7.9074639 137.75008 6.7686205 C 137.73505 5.6855281 136.06932 3.6424524 135.49227 3.9990893 C 135.22826 4.1622566 134.73007 5.3031545 134.38484 6.5361987 C 133.84104 8.4785345 133.86713 9.1928062 134.58211 11.876042 C 135.45075 15.135928 136.77487 17.565302 139.17586 20.299871 L 140.62313 21.948308 L 138.83211 21.633855 C 137.84661 21.46051 135.35842 21.367847 133.30281 21.428777 C 130.6534 21.50731 128.76649 21.272791 126.82234 20.622136 C 122.93202 19.320141 122.49031 19.377054 122.69734 21.155339 C 122.86475 22.593218 125.69071 25.920964 126.74422 25.920964 C 127.0117 25.920964 127.34156 26.207638 127.47664 26.559636 C 127.61171 26.911636 127.98223 27.201467 128.30086 27.204167 C 128.6195 27.206916 130.17586 27.81478 131.75984 28.553777 C 133.84336 29.525818 135.26901 29.869181 136.91414 29.794011 C 138.16486 29.736864 140.43194 29.959558 141.9532 30.290105 C 143.47448 30.620651 145.1225 30.835297 145.61336 30.766667 C 146.14593 30.692201 146.37699 30.848873 146.18758 31.155339 C 145.99429 31.468092 146.15418 31.561126 146.59578 31.391667 C 148.27401 30.747672 152.58381 33.118239 152.83406 34.823308 C 152.90967 35.338434 153.21486 35.760808 153.5118 35.760808 C 153.80874 35.760808 155.11494 36.839248 156.41414 38.159246 C 157.71333 39.479242 159.64049 41.283178 160.69734 42.167058 C 161.77567 43.06888 162.73605 44.356593 162.88484 45.100652 C 163.03069 45.829908 163.70111 47.080934 164.37508 47.881902 C 165.04905 48.68287 165.59969 49.590058 165.59969 49.897527 C 165.59969 50.204992 165.79138 50.339074 166.02547 50.194402 C 166.25956 50.049725 166.70746 50.238201 167.01961 50.614324 C 167.33176 50.990445 168.2736 51.444636 169.11336 51.624089 C 169.95311 51.803546 170.85522 52.112102 171.11922 52.309636 C 171.6405 52.699665 171.73365 52.711651 175.78328 52.907292 C 179.78108 53.100425 181.53182 55.256041 178.21102 55.895574 C 177.09575 56.110352 174.24031 57.507992 174.24031 57.838933 C 174.24031 57.956317 175.64648 59.479271 177.36531 61.223699 C 179.08417 62.968126 180.36353 64.598748 180.20906 64.848699 C 180.05458 65.098656 180.21491 65.243504 180.56453 65.170964 C 180.91415 65.098422 181.14094 65.325249 181.06844 65.674871 C 180.9959 66.024496 181.10513 66.20738 181.31258 66.079167 C 181.52003 65.950956 182.09242 66.139595 182.58406 66.499089 C 183.4378 67.123358 183.40968 67.240037 181.93758 69.098699 C 181.08985 70.169049 180.19793 70.923314 179.95711 70.77448 C 179.71629 70.625642 179.51961 70.843986 179.51961 71.260808 C 179.51961 71.677635 179.01305 72.824884 178.39266 73.809636 C 177.04523 75.948435 173.90097 84.990994 174.14656 86.022527 C 174.19153 86.211368 173.98129 86.96901 173.67977 87.704167 C 173.07246 89.184941 172.83336 90.063527 172.69149 91.319402 C 172.6393 91.7814 172.47978 92.161012 172.33797 92.161199 C 172.19615 92.161381 172.0508 92.661661 172.0157 93.27448 C 171.98055 93.887299 171.16465 96.005787 170.20125 97.981511 C 168.61666 101.23114 168.21099 101.6927 165.94539 102.82917 C 163.35402 104.12904 159.20985 105.7303 158.54109 105.6905 C 158.33116 105.67801 157.83553 105.94155 157.43953 106.27448 C 156.3487 107.19156 153.07834 108.59883 152.7657 108.2862 C 152.42911 107.94961 144.93585 111.92285 142.72078 113.61237 C 141.84026 114.28398 141.11736 114.6464 141.11336 114.41706 C 141.10932 114.18773 140.94599 114.21995 140.75203 114.48932 C 139.43489 116.3186 128.54473 118.01017 123.03524 117.24128 C 120.75037 116.9224 113.35784 116.77788 104.16024 116.87018 C 89.657502 117.0157 88.872501 117.06919 84.959064 118.2237 C 75.622712 120.97803 67.486354 124.48211 64.855548 126.878 C 62.507305 129.01653 59.553224 134.56412 58.80672 138.24128 C 58.193348 141.26263 57.33954 143.30703 55.906329 145.18464 C 54.189915 147.43326 53.788375 149.29018 54.839923 150.11237 C 55.865556 150.91429 58.642813 151.68501 59.214923 151.32721 C 60.809632 150.32991 61.041286 150.75482 60.929767 154.47565 C 60.869042 156.50153 60.975497 158.72552 61.166095 159.41706 C 61.356689 160.1086 61.287327 162.37763 61.011798 164.45807 C 60.736268 166.53854 60.391546 169.17672 60.246173 170.32135 C 59.747026 174.25152 57.438982 177.35738 53.591876 179.27448 C 52.260689 179.93784 50.782883 180.47956 50.30672 180.47956 C 49.830555 180.47956 49.439532 180.70778 49.439532 180.98737 C 49.439532 181.26691 49.256808 181.38333 49.033282 181.24518 C 48.253879 180.76349 45.633753 183.93229 44.660235 186.53425 C 43.957893 188.41142 43.679767 190.30371 43.679767 193.19635 C 43.679767 195.41802 43.483512 197.7305 43.24422 198.33698 C 43.004924 198.9434 42.328097 201.16834 41.740314 203.28034 C 40.461208 207.87633 39.455362 209.98273 36.642657 213.95221 C 33.287456 218.68733 32.227244 222.85855 33.906329 224.71393 C 34.582753 225.46137 34.598654 225.69695 34.02547 226.40339 C 33.581999 226.94997 33.559692 227.10426 33.959064 226.86432 C 34.289062 226.666 34.55872 226.67809 34.55672 226.89167 C 34.5506 227.54714 33.579488 233.46036 33.310626 234.47956 C 33.129931 235.16453 33.183495 235.25755 33.500079 234.80182 C 33.826238 234.33231 34.022577 234.55494 34.240314 235.64362 C 34.403225 236.45818 34.538695 237.23489 34.541095 237.37018 C 34.543442 237.50546 35.311263 238.28979 36.248126 239.11237 C 37.18499 239.93495 37.839967 240.71975 37.703204 240.85651 C 37.566441 240.99328 37.829292 241.38966 38.287189 241.73737 C 38.883412 242.19012 41.067565 242.37295 45.980548 242.38385 C 54.027508 242.40176 54.900397 242.06179 52.679767 239.77448 C 50.98319 238.02695 49.258049 234.44703 49.636798 233.46003 C 49.786634 233.06952 49.740402 232.85545 49.533282 232.98346 C 49.326164 233.11146 49.126263 231.98766 49.089923 230.48737 C 49.028824 227.96426 49.147502 227.64222 50.671954 226.20026 C 52.157312 224.79527 52.325802 224.37026 52.377032 221.8819 C 52.408292 220.36332 52.369315 218.90371 52.291095 218.63971 C 52.212874 218.37571 51.938952 216.17757 51.68172 213.75495 C 51.331612 210.45759 51.368993 208.61693 51.83211 206.43464 C 52.172372 204.83126 52.600399 203.52057 52.783282 203.52057 C 52.966172 203.52057 53.099184 203.0566 53.078204 202.48932 C 53.057242 201.92203 53.344809 201.35244 53.716876 201.2237 C 54.183638 201.0622 54.299851 201.23251 54.091876 201.77448 C 53.926098 202.2065 53.963434 202.55964 54.17586 202.55964 C 54.689825 202.55964 55.963901 207.23237 56.880939 212.4776 C 57.408202 215.4934 57.531969 218.05916 57.30672 221.3487 C 57.008342 225.70628 57.047112 226.00827 57.982501 226.50885 C 58.528928 226.80129 59.408064 227.0401 59.935626 227.0401 C 61.099854 227.0401 61.435899 227.97024 61.406329 231.12018 C 61.380764 233.84562 61.618953 235.17984 62.388751 236.61823 C 62.683418 237.16882 62.772967 237.86382 62.58797 238.16315 C 62.402969 238.46252 62.463086 238.57828 62.720782 238.41901 C 63.178083 238.13638 64.512528 239.34729 64.658282 240.17682 C 64.698521 240.40583 65.39964 241.00015 66.216876 241.49714 C 67.507287 242.28189 68.708865 242.39948 75.343829 242.39948 C 79.968141 242.39948 83.101992 242.20844 83.283282 241.9151 C 83.448018 241.64857 83.137036 240.86402 82.591876 240.17096 C 82.046723 239.47791 81.599689 238.63788 81.599689 238.30573 C 81.599689 237.97358 81.287478 237.58164 80.904376 237.43464 C 79.957928 237.07145 77.225132 232.23558 77.51961 231.4444 C 77.649555 231.09527 77.534816 230.3962 77.263751 229.88971 C 76.90257 229.21484 76.967614 228.58893 77.505939 227.54792 C 77.909948 226.76665 78.240314 225.40871 78.240314 224.53034 C 78.240314 222.47904 77.688366 221.66356 71.640704 214.77253 C 70.518706 213.49406 69.599689 212.13019 69.599689 211.74323 C 69.599689 211.3563 69.465538 211.17424 69.30086 211.33893 C 68.849811 211.78998 66.720501 208.44939 65.40047 205.21979 C 63.960577 201.69695 63.489805 196.43945 64.345782 193.4405 C 64.684869 192.2525 65.016554 190.99052 65.084064 190.63776 C 65.351335 189.24119 67.743725 186.24486 68.761798 186.03034 C 69.355292 185.90529 71.892474 185.70312 74.40047 185.58112 C 80.731951 185.27313 80.701632 185.28366 86.164142 181.21589 C 89.40187 178.80484 90.680947 178.3412 95.160235 177.94831 C 95.622235 177.90779 96.000079 177.73555 96.000079 177.5655 C 96.000079 177.39545 98.301546 176.09836 101.11531 174.68268 C 104.62045 172.91905 107.15303 171.23707 109.15633 169.34479 C 110.76451 167.82572 112.40486 166.5761 112.80086 166.5655 C 113.39833 166.54957 113.40791 166.47464 112.8575 166.12604 C 112.33525 165.79527 112.45535 165.53276 113.42781 164.89557 C 114.10712 164.45047 115.45284 163.34104 116.41805 162.43073 C 120.60071 158.48595 123.19205 158.16235 130.32234 160.6905 C 133.22765 161.7206 136.36059 162.90869 137.28328 163.33112 C 138.20597 163.75354 139.87808 164.36414 141.00008 164.68659 C 142.12208 165.00903 143.03914 165.42025 143.03914 165.60065 C 143.03914 165.78105 144.01745 165.94193 145.21297 165.96003 C 148.4971 166.00967 152.36427 166.61895 152.69344 167.13776 C 153.20355 167.94176 161.9024 168.03528 164.84578 167.26862 C 166.82466 166.75319 168.12033 166.68886 169.80281 167.02253 C 171.05562 167.27098 173.37508 167.57892 174.95906 167.70612 C 181.26548 168.21253 189.59969 170.32623 189.59969 171.41901 C 189.59969 171.65098 189.93341 171.84089 190.33992 171.84089 C 190.74644 171.84089 191.94341 172.28131 193.00203 172.82135 C 194.79879 173.73799 198.32405 174.96389 206.74813 177.60065 C 208.65614 178.19787 210.10466 178.8726 209.96492 179.0987 C 209.82518 179.3248 210.04377 179.38202 210.45125 179.22565 C 210.86852 179.06553 211.30803 179.24146 211.45711 179.62995 C 211.6027 180.00935 212.02248 180.3194 212.3907 180.3194 C 213.22487 180.3194 221.19542 187.23511 221.24422 188.00104 C 221.26384 188.30904 221.44734 188.63179 221.65242 188.71979 C 222.31359 189.00349 228.79814 197.93468 229.85164 200.01276 C 230.43132 201.15622 230.735 202.38099 230.55477 202.85065 C 230.34895 203.38705 230.42175 203.56396 230.76375 203.3526 C 231.40972 202.95339 231.73737 203.92502 232.11727 207.36042 C 232.27783 208.81242 232.74929 210.57488 233.16414 211.27839 C 233.85507 212.45005 235.94431 213.86933 236.72469 213.69635 C 236.90314 213.65679 237.20064 214.31751 237.3868 215.1651 C 237.57297 216.01272 238.02256 217.15904 238.38484 217.71198 C 238.7472 218.26493 238.93378 218.86122 238.80086 219.03815 C 238.6679 219.21511 238.6883 219.26687 238.84578 219.15339 C 239.00325 219.03992 240.06227 219.87771 241.1993 221.01471 C 244.90433 224.71976 250.52323 225.12905 254.4825 221.98151 C 255.63997 221.06134 257.11424 220.32726 257.81063 220.32526 C 260.05753 220.31688 262.63341 217.06728 261.00008 216.30182 C 258.78992 215.26603 252.25519 210.50531 251.04891 209.05182 C 250.56065 208.46346 250.38214 207.33294 250.47664 205.42682 C 250.59757 202.98676 250.46594 202.50986 249.36531 201.40925 C 248.67831 200.72225 247.72989 200.15925 247.25789 200.15925 C 246.78589 200.15925 246.25013 200.00891 246.06649 199.82526 C 245.88285 199.64162 245.41776 199.44611 245.03328 199.38971 C 243.68546 199.19189 241.09482 197.2758 238.75789 194.74714 C 233.43426 188.98667 228.86343 183.19946 229.2325 182.68854 C 229.34698 182.53004 229.2944 182.50854 229.11727 182.64167 C 228.63685 183.00275 225.19933 177.62079 224.83602 175.93854 C 224.30832 173.49508 222.42654 170.26089 220.38094 168.28229 C 219.31307 167.24939 218.57259 166.19066 218.73445 165.92878 C 218.8963 165.66684 218.81633 165.58278 218.55672 165.74323 C 218.29711 165.90368 217.28508 165.37619 216.30867 164.57135 C 215.33225 163.76652 212.77932 162.22822 210.63484 161.15143 L 206.73641 159.19245 L 208.09188 158.11237 C 210.39618 156.27498 216.40445 154.15934 217.46297 154.81354 C 217.85626 155.05661 217.94916 154.9939 217.72664 154.63385 C 217.39739 154.10117 217.96791 153.87878 219.24031 154.04401 C 219.57031 154.08686 219.83992 153.93187 219.83992 153.69831 C 219.83992 153.46474 221.01112 153.01104 222.44344 152.6905 C 224.54169 152.22091 225.25733 152.22875 226.12117 152.73346 C 226.71085 153.07799 230.96008 157.07209 235.56453 161.60846 C 241.27784 167.2373 243.81953 170.05605 243.57039 170.48737 C 243.36963 170.835 243.3637 170.97842 243.55672 170.80573 C 244.00822 170.40177 247.1993 173.31575 247.1993 174.1319 C 247.1993 174.47201 247.52357 174.8731 247.91805 175.02448 C 248.31259 175.17585 248.49361 175.52666 248.32234 175.80378 C 248.15109 176.08091 248.23173 176.17275 248.50008 176.0069 C 248.76842 175.84105 249.8931 176.67157 251.00008 177.8526 C 252.10706 179.03366 252.9135 180.00104 252.79305 180.00104 C 252.67259 180.00104 253.20001 180.67047 253.96492 181.48932 C 254.72983 182.30816 255.24794 183.15362 255.11531 183.36823 C 254.98267 183.58285 255.13344 183.84432 255.45125 183.95026 C 255.80112 184.06688 256.16678 185.73809 256.37703 188.18464 C 256.68863 191.81051 256.86354 192.34406 258.08211 193.39753 C 258.82897 194.0432 259.38504 194.75145 259.31844 194.96979 C 259.08082 195.74921 261.15373 199.46944 262.77938 201.18268 C 263.68916 202.14149 264.29999 203.06051 264.1368 203.2237 C 263.9736 203.3869 264.3207 203.52057 264.90828 203.52057 C 265.59361 203.52057 265.85455 203.71782 265.63484 204.07331 C 265.42573 204.41169 265.502 204.49802 265.83211 204.29401 C 266.12944 204.11024 266.91741 204.31814 267.58406 204.75495 C 268.51087 205.36189 269.59766 205.50352 272.1993 205.35651 C 275.13303 205.19074 275.72547 205.00067 276.49422 203.98151 C 276.98459 203.33142 277.61358 202.77232 277.89266 202.73932 C 278.17174 202.70632 278.67008 202.64596 279.00008 202.60456 C 279.33008 202.56316 279.99392 202.23071 280.47469 201.86628 C 281.29081 201.24764 281.29771 201.10554 280.58211 199.72175 C 280.16059 198.90657 279.98281 198.23746 280.18758 198.23346 C 280.39236 198.22942 280.30694 198.06468 279.99813 197.86823 C 279.3039 197.42661 275.81654 191.0401 276.26961 191.0401 C 276.44986 191.0401 276.33671 190.72533 276.01766 190.34089 C 275.69865 189.95646 275.59753 189.38381 275.79305 189.06745 C 276.00255 188.72851 275.94564 188.61791 275.65438 188.79792 C 275.33198 188.9972 275.24024 188.38258 275.39266 187.03034 C 275.5748 185.4144 275.35048 184.43853 274.37313 182.6026 C 273.68367 181.30747 273.11922 180.44911 273.11922 180.6944 C 273.11922 180.93969 272.52686 180.59497 271.80086 179.92878 C 271.07486 179.26258 269.40384 178.10318 268.08797 177.3526 C 266.7721 176.60203 265.47524 175.80581 265.20711 175.58307 C 264.93898 175.36033 263.69712 174.40016 262.44734 173.45026 C 261.19757 172.50036 260.31392 171.50036 260.4825 171.2276 C 260.65955 170.94114 260.55457 170.87547 260.23445 171.07331 C 259.89734 171.28166 259.67977 171.09282 259.67977 170.58893 C 259.67977 170.13334 259.53228 169.90829 259.35164 170.08893 C 258.86936 170.57121 255.82491 167.46124 256.17586 166.84479 C 256.33995 166.55662 256.31391 166.46339 256.11727 166.63971 C 255.92063 166.81602 255.32815 166.60151 254.80281 166.1612 C 253.79601 165.31735 249.11643 159.09988 249.26961 158.80964 C 249.31882 158.71644 249.27607 158.68708 249.17391 158.74518 C 248.84212 158.93407 245.53934 153.91532 244.07039 150.98932 C 243.28322 149.42138 241.54552 146.98868 240.20711 145.58307 C 238.86869 144.17746 237.89653 142.86733 238.04695 142.67292 C 238.19736 142.47849 238.11949 142.48422 237.87508 142.68464 C 237.63067 142.88505 236.98322 142.63283 236.43563 142.12409 C 232.90326 138.84231 214.94353 136.87502 209.56453 139.18073 C 208.35169 139.70063 207.35759 139.97091 207.35359 139.78229 C 207.34955 139.59367 207.18623 139.68284 206.99227 139.97956 C 206.49088 140.74658 200.20896 143.60809 199.70711 143.29792 C 198.99949 142.8606 199.67411 141.34922 201.63875 138.97175 C 202.6731 137.72004 203.51961 136.26487 203.51961 135.73737 C 203.51961 135.05718 203.743 134.86329 204.28524 135.07135 C 206.60692 135.96223 207.35945 135.94796 207.35945 135.01276 C 207.35945 134.50014 207.19808 133.91779 207.00008 133.71979 C 206.80208 133.52179 206.63213 133.21609 206.62313 133.0401 C 206.61378 132.86411 206.38353 132.28881 206.11141 131.76081 C 205.68336 130.93028 205.58408 129.87151 205.89656 129.47956 C 205.94918 129.41356 206.08569 128.8474 206.20125 128.22175 C 206.31681 127.59609 206.9397 126.45665 207.58602 125.68854 C 208.23234 124.92044 208.90836 123.50925 209.08797 122.55182 C 209.5217 120.23989 208.98041 112.31689 208.26961 110.57917 C 207.9593 109.82052 207.37971 108.45271 206.9825 107.5401 C 205.91521 105.0879 204.96191 101.18573 205.29695 100.64362 C 205.45777 100.3834 205.66886 99.395371 205.76766 98.446355 C 205.86643 97.497344 206.20269 95.964103 206.51375 95.040105 C 206.82481 94.116107 207.08839 93.143947 207.09969 92.879949 C 207.11095 92.615949 207.66039 92.340839 208.32039 92.268621 C 211.1965 91.953923 213.98984 90.916245 215.9493 89.434636 C 217.10927 88.557558 218.25652 87.840886 218.49813 87.840886 C 218.73975 87.840886 218.79452 87.60966 218.62117 87.329167 C 218.40815 86.984507 219.06035 86.895862 220.63289 87.05573 C 238.35428 88.857349 237.98792 88.900883 242.40242 84.477605 C 244.20377 82.672674 245.79051 81.310998 245.92977 81.450261 C 246.37124 81.891731 245.84867 79.038417 245.1075 76.963933 C 244.71555 75.865801 244.53902 74.804708 244.71688 74.606511 C 244.89475 74.408315 244.80934 74.377967 244.52742 74.538152 C 244.24551 74.698338 243.71339 74.408318 243.34383 73.895574 C 242.47853 72.695048 237.56654 70.848226 232.08016 69.659246 C 226.10818 68.365033 222.45112 67.072969 222.61141 66.313542 C 222.68395 65.969869 222.53949 65.815066 222.28914 65.969792 C 222.03878 66.12452 221.34125 65.547688 220.74031 64.686589 C 220.13937 63.825485 219.36255 62.943782 219.01375 62.729558 C 218.66495 62.515334 218.50894 62.132312 218.66609 61.877996 C 218.82327 61.623682 218.77239 61.457545 218.55477 61.508855 C 218.33715 61.560162 216.54061 60.845236 214.56063 59.919011 C 212.58063 58.992781 209.93377 57.95517 208.67977 57.614324 C 206.89548 57.129341 206.39216 56.773971 206.36336 55.977605 C 206.34316 55.417915 206.25469 54.581486 206.16609 54.11823 C 206.07747 53.654972 206.1857 53.388869 206.40828 53.526433 C 206.63086 53.663996 206.92653 53.593469 207.06453 53.370183 C 207.20253 53.146896 209.10673 52.952272 211.29695 52.938542 C 217.49977 52.899614 219.80126 52.419666 222.5118 50.598699 C 226.10651 48.183718 227.04149 46.884075 227.57625 43.563542 C 228.109 40.255483 227.64098 39.172441 226.21102 40.401433 C 224.27977 42.061271 223.84388 41.831134 224.16609 39.319402 C 224.47174 36.93686 223.83592 34.530077 222.72078 33.840886 C 222.02791 33.412668 219.76603 34.531699 220.13094 35.122136 C 220.50419 35.72606 215.70944 40.203583 213.46102 41.350652 C 210.8997 42.65734 206.30233 44.089775 205.56844 43.809636 C 205.12929 43.642011 205.10987 43.336653 205.49227 42.622136 C 206.16678 41.361835 206.82439 34.538043 206.23641 34.901433 C 205.99292 35.051598 205.88346 34.911434 205.99031 34.590886 C 206.09716 34.270338 206.39502 33.975879 206.65242 33.936589 C 206.90982 33.897294 207.44392 33.608642 207.83992 33.294011 C 208.23592 32.979379 209.7473 31.773783 211.1993 30.616277 C 214.84977 27.706183 215.68948 25.799088 215.71688 20.340886 C 215.73924 15.883576 215.24843 14.39948 213.75399 14.39948 C 213.37548 14.39948 212.63075 15.318497 212.09774 16.440496 C 209.78077 21.317645 208.83736 22.57915 205.89461 24.739324 C 204.65001 25.652936 203.52081 26.39948 203.38484 26.39948 C 203.24888 26.39948 202.68241 25.527507 202.12703 24.46198 C 201.57164 23.396452 200.36963 21.776839 199.45516 20.862371 C 198.54069 19.947901 198.00074 19.200261 198.25594 19.200261 C 198.51114 19.200261 198.69339 19.038886 198.66219 18.840886 C 198.49828 17.80278 198.78063 17.258783 199.32039 17.569402 C 199.65043 17.759307 199.76568 17.743994 199.5782 17.536199 C 199.39073 17.328402 199.58036 16.496408 199.99813 15.688542 C 200.42654 14.860098 200.85019 12.53354 200.97078 10.350652 C 201.23966 5.483683 200.28114 3.120183 198.03914 3.1201831 C 196.90847 3.1201831 196.54922 3.3966609 196.16805 4.5596362 C 195.90846 5.3516347 195.45846 6.1586478 195.16805 6.3526049 C 194.87763 6.5465619 194.79764 6.7079499 194.99031 6.7119799 C 195.39994 6.7205748 190.96004 13.767806 189.77156 14.995183 C 189.00444 15.787418 188.92855 15.780272 188.29109 14.870183 C 187.92169 14.342764 187.58655 13.481819 187.54695 12.956121 C 187.50735 12.43042 187.35216 11.999089 187.20125 11.999089 C 187.05036 11.999089 186.51391 11.298494 186.00984 10.440496 C 185.07767 8.8537918 181.06866 4.7723532 179.22664 3.5361987 C 178.32141 2.9287041 174.61875 2.3929806 172.8243 2.4483081 z M 158.19539 9.6065112 C 159.00652 9.6199488 159.70615 10.307603 160.05867 11.436589 C 160.25036 12.050484 160.53327 12.426837 160.68758 12.272527 C 161.12563 11.834479 163.2074 13.99998 162.87117 14.544011 C 162.70652 14.810423 162.77844 14.899523 163.03133 14.74323 C 163.28422 14.586936 164.27645 15.180195 165.23641 16.059636 C 166.19638 16.939077 167.08373 17.556058 167.20906 17.43073 C 167.33439 17.305402 167.94206 17.480577 168.55867 17.821355 C 169.17528 18.162133 170.00447 18.400162 170.40047 18.350652 C 170.79647 18.301138 169.71608 18.926889 168.00008 19.739324 C 166.28408 20.551756 164.07016 21.331294 163.08016 21.471746 C 161.1204 21.749778 160.7594 22.625401 161.93953 24.239324 C 162.46505 24.958012 163.17284 25.128907 165.42 25.085027 C 166.97123 25.054738 167.88534 25.134195 167.45125 25.260808 C 167.01716 25.387422 166.55322 26.074181 166.42 26.786199 C 165.98285 29.122755 165.64155 30.339344 164.83016 32.463933 C 164.38993 33.616666 163.88141 34.559636 163.6993 34.559636 C 163.14602 34.559636 161.44097 32.497073 160.56649 30.768621 C 160.0355 29.719106 159.77054 28.181373 159.82234 26.450261 C 159.93637 22.638978 159.94997 22.559636 160.45906 22.559636 C 160.7114 22.559636 160.67122 22.261414 160.36922 21.897527 C 159.97913 21.427523 159.96232 20.862496 160.31063 19.946355 C 161.37424 17.148857 160.62871 12.778622 158.73055 10.68073 C 158.19304 10.086731 157.95137 9.6024812 158.19539 9.6065112 z M 184.96297 22.801824 C 187.11772 22.851661 188.2006 23.719664 189.58992 25.977605 C 190.38407 27.268252 191.45647 28.685949 191.97274 29.127996 C 192.48899 29.570041 192.78044 30.141782 192.62117 30.39948 C 192.46065 30.659218 192.5796 30.716295 192.8868 30.526433 C 193.19159 30.338062 193.43953 30.424633 193.43953 30.719792 C 193.43953 31.014992 193.61176 31.150735 193.82234 31.020574 C 194.36686 30.684042 194.98046 31.187397 196.51375 33.229558 C 197.77991 34.915947 197.8434 35.232244 197.62313 38.749089 C 197.4946 40.801106 197.1316 43.472117 196.81649 44.684636 L 196.24422 46.889714 L 191.66609 46.844792 C 189.05978 46.819415 187.02966 46.592624 186.95516 46.319402 C 186.8832 46.055402 186.54825 44.544023 186.21102 42.960027 C 185.42142 39.251227 184.13782 36.687966 182.05281 34.663152 C 179.30861 31.998152 175.14693 31.036998 174.1407 32.835027 C 173.78476 33.471044 173.90942 33.936963 174.64266 34.719792 C 176.04333 36.215184 176.6407 38.098136 176.6407 41.018621 L 176.6407 43.577214 L 174.93172 42.706121 C 172.07483 41.2496 170.71144 39.591277 171.09969 38.047917 C 171.28343 37.317534 171.50674 35.258183 171.59774 33.471746 C 171.75252 30.434606 171.65687 30.064164 170.10945 27.764714 C 169.19928 26.412186 168.53259 25.226389 168.62899 25.129949 C 168.78543 24.973519 170.84305 24.656256 182.40047 23.002996 C 183.40821 22.858841 184.24472 22.785211 184.96297 22.801824 z "
       transform="translate(-33.121173,-2.4444018)" />
    <g
       id="layer3"
       inkscape:label="Hooves"
       style="display:inline;fill:#ac9393">
      <path
         style="fill:#ac9393;stroke-width:0.48"
         d="m 79.065523,239.63827 c -0.07317,-0.47942 -0.61284,-1.54551 -1.199275,-2.36908 C 77.279813,236.44565 76.8,235.55316 76.8,235.28591 c 0,-0.26725 -0.207533,-0.5579 -0.461189,-0.6459 -0.386568,-0.13411 -0.974472,-2.83426 -1.104417,-5.07238 -0.02314,-0.39875 -0.218804,-0.43933 -0.59856,-0.12417 -0.310287,0.25752 -0.680266,0.35212 -0.822168,0.21021 -0.33578,-0.33577 0.454464,3.91246 1.085596,5.83602 0.531567,1.6201 0.993692,3.49498 1.059284,4.2976 0.0228,0.27901 0.761126,0.55575 1.640731,0.61499 1.305134,0.0879 1.574808,-0.0526 1.466246,-0.76398 z"
         transform="translate(-33.121173,-2.4444018)"
         id="path383" />
      <path
         style="fill:#ac9393;stroke-width:0.48"
         d="m 73.103146,240.21072 c 0.568176,-0.21803 0.612753,-0.65178 0.234312,-2.28 -0.257045,-1.10591 -0.507197,-2.22675 -0.555903,-2.49075 -0.0487,-0.264 -0.223445,-0.696 -0.388315,-0.96 -0.16487,-0.264 -0.453322,-1.506 -0.641002,-2.76 -0.241334,-1.61247 -0.571214,-2.29709 -1.126737,-2.33839 -0.432024,-0.0321 -1.433501,-0.0861 -2.225501,-0.12 -0.792,-0.0339 -1.977792,-0.54761 -2.635094,-1.14161 -2.060674,-1.86221 -2.413892,-1.46588 -2.352183,2.63928 0.04262,2.83552 0.296712,4.13769 1.069339,5.48016 0.98438,1.71039 3.475306,3.64319 4.008312,3.11019 0.145152,-0.14515 0.577628,0.0498 0.961056,0.43323 0.71257,0.71257 2.395853,0.90981 3.651716,0.42789 z"
         transform="translate(-33.121173,-2.4444018)"
         id="path381" />
      <path
         style="fill:#ac9393;stroke-width:0.48"
         d="m 50.4,240.19572 c 0,-0.15636 -0.431266,-0.83256 -0.958373,-1.50267 -1.167547,-1.48429 -1.815437,-3.7832 -2.114332,-7.50228 -0.124176,-1.54508 -0.333245,-2.91671 -0.464599,-3.04807 -0.746865,-0.74686 -1.064084,0.78857 -0.992465,4.80381 0.09646,5.40786 0.997465,7.5335 3.193262,7.5335 0.735077,0 1.336507,-0.12793 1.336507,-0.28429 z"
         transform="translate(-33.121173,-2.4444018)"
         id="path379" />
      <path
         style="fill:#ac9393;stroke-width:0.48"
         d="m 44.891233,239.52001 c -0.732022,-1.44256 -1.390206,-6.18652 -1.245754,-8.97895 0.099,-1.91379 0.0089,-2.06142 -1.73052,-2.83414 -1.009227,-0.44835 -2.013014,-0.77647 -2.230637,-0.72915 -0.217623,0.0473 -0.272864,-0.11269 -0.122757,-0.35557 0.150107,-0.24288 -0.103838,-0.60486 -0.564322,-0.8044 -1.594592,-0.69097 -1.92539,-0.61375 -1.663351,0.38829 0.191145,0.73094 0.09345,0.88275 -0.379851,0.59024 -0.463242,-0.28631 -0.553511,-0.17576 -0.330677,0.40494 0.168579,0.4393 0.09729,0.79874 -0.158429,0.79874 -0.255714,0 -0.464935,0.85125 -0.464935,1.89167 0,1.04042 -0.200087,2.01533 -0.444637,2.16647 -0.60114,0.37153 0.188759,3.015 1.270099,4.25051 0.5933,0.67788 0.63443,0.8496 0.134538,0.56172 -1.527537,-0.87972 0.676494,1.32163 2.434178,2.4312 1.727167,1.09031 3.136192,1.49105 5.075907,1.44362 0.939804,-0.023 0.976715,-0.13037 0.421148,-1.22519 z"
         transform="translate(-33.121173,-2.4444018)"
         id="path377" />
      <path
         style="fill:#ac9393;stroke-width:0.48"
         d="m 278.88,200.60664 c 0,-0.77083 -1.20677,-3.08029 -2.05751,-3.93756 -0.47163,-0.47525 -0.72793,-1.07373 -0.56957,-1.32997 0.15836,-0.25624 -0.0485,-0.59499 -0.45974,-0.75279 -0.41122,-0.1578 -0.64838,-0.44756 -0.52702,-0.64392 0.12135,-0.19636 -0.20389,-0.81269 -0.72276,-1.36963 -0.51887,-0.55694 -0.9434,-1.23766 -0.9434,-1.5127 0,-0.8142 -1.83348,-0.56944 -2.32591,0.3105 -0.43427,0.77599 -0.29359,1.21835 1.98849,6.25305 0.26516,0.58499 0.69893,0.92962 0.96393,0.76584 0.27145,-0.16777 0.33337,-0.0576 0.14181,0.25236 -0.59279,0.95915 1.79656,2.8853 3.23748,2.60985 0.70081,-0.13397 1.2742,-0.42423 1.2742,-0.64503 z"
         transform="translate(-33.121173,-2.4444018)"
         id="path401" />
      <path
         style="fill:#ac9393;stroke-width:0.48"
         d="m 273.6,202.80001 c 0,-0.66 -0.216,-1.2 -0.48,-1.2 -0.264,0 -0.48,-0.41925 -0.48,-0.93167 0,-0.51242 -0.20206,-1.05656 -0.44902,-1.20918 -0.47246,-0.292 -3.03832,-5.44512 -3.10952,-6.24498 -0.0743,-0.83522 -2.40339,-1.67318 -4.07973,-1.46783 -0.90105,0.11037 -2.1088,0.6986 -2.6839,1.30717 -0.89428,0.94632 -0.97975,1.34966 -0.59044,2.78649 1.09121,4.02736 6.17283,8.03085 10.31261,8.12465 1.35343,0.0307 1.56,-0.12356 1.56,-1.16465 z"
         transform="translate(-33.121173,-2.4444018)"
         id="path399" />
      <path
         style="fill:#ac9393;stroke-width:0.48"
         d="m 258.448,217.87744 c 0.2464,-0.23179 0.3544,-0.49286 0.24,-0.58015 -0.1144,-0.0873 -1.20225,-0.9549 -2.41744,-1.928 -1.21519,-0.97311 -2.3398,-1.76928 -2.49914,-1.76928 -0.15934,0 -1.21709,-0.86131 -2.35056,-1.91402 -1.13348,-1.05271 -2.33086,-1.91671 -2.66086,-1.92 -0.33,-0.003 -0.6,-0.21521 -0.6,-0.47092 0,-0.25571 -0.324,-0.3406 -0.72,-0.18865 -1.33139,0.51091 -0.73904,1.53299 3.31046,5.71213 3.86086,3.98446 4.0982,4.1452 5.64,3.81991 0.88525,-0.18678 1.81114,-0.52924 2.05754,-0.76102 z"
         transform="translate(-33.121173,-2.4444018)"
         id="path397" />
      <path
         style="fill:#ac9393;stroke-width:0.48"
         d="m 251.52,221.70201 c 0.70486,-0.17818 1.41804,-0.87917 1.43265,-1.40818 0.004,-0.14639 -1.39665,-1.69806 -3.11265,-3.44814 -1.716,-1.75009 -3.12,-3.32565 -3.12,-3.50125 0,-0.66477 -3.02804,-3.1125 -4.08826,-3.30476 -1.43706,-0.26059 -4.15916,2.08389 -3.91283,3.37003 0.53471,2.79177 2.86416,6.21518 3.82503,5.62134 0.26641,-0.16466 0.34811,-0.0789 0.18154,0.19064 -0.35856,0.58017 0.89416,1.80569 2.56439,2.50872 1.07549,0.45268 4.3867,0.43759 6.23013,-0.0284 z"
         transform="translate(-33.121173,-2.4444018)"
         id="path395" />
    </g>
    <g
       id="layer4"
       inkscape:label="Body"
       style="fill:#aa4400">
      <path
         style="fill:#aa4400;stroke-width:0.48"
         d="m 49.56,224.5884 c 1.52243,-1.51614 1.586381,-2.31185 0.600082,-7.46617 -0.959991,-5.01681 -0.903336,-6.62471 0.46235,-13.12222 1.670462,-7.94756 1.899451,-8.7191 3.413338,-11.5006 1.449763,-2.6637 5.053948,-6.7394 5.959713,-6.7394 0.297648,0 0.387053,-0.24938 0.198682,-0.55417 -0.214234,-0.34664 -0.131453,-0.42373 0.221054,-0.20587 0.309951,0.19156 1.261325,0.12248 2.114165,-0.15351 0.85284,-0.27599 4.358616,-0.62292 7.790616,-0.77096 7.227235,-0.31175 9.184368,-0.78556 12.48,-3.02136 3.111643,-2.11097 8.033554,-7.20207 7.615958,-7.87775 -0.178358,-0.28859 -0.10884,-0.39156 0.154488,-0.22881 0.263328,0.16274 1.214703,-0.58462 2.114165,-1.66082 0.899463,-1.07619 2.445389,-2.87413 3.435389,-3.99541 0.99,-1.12129 1.8,-2.28455 1.8,-2.58502 0,-0.30048 0.216,-0.54632 0.48,-0.54632 0.264,0 0.48,-0.28635 0.48,-0.63634 0,-0.34997 0.533342,-1.13738 1.18521,-1.74977 0.65186,-0.61239 1.08251,-1.27959 0.95701,-1.48267 -0.12551,-0.20308 -0.0358,-0.44168 0.1993,-0.53023 0.47583,-0.1792 4.85848,-7.95444 4.85848,-8.61941 0,-0.23187 0.162,-0.42306 0.36,-0.42486 0.198,-0.002 0.88812,-0.77864 1.5336,-1.7263 0.64547,-0.94766 1.93761,-2.24218 2.87142,-2.87672 1.93276,-1.31334 4.35498,-1.55457 4.35498,-0.43371 0,0.4 -0.42667,0.72 -0.96,0.72 -0.528,0 -0.96,0.216 -0.96,0.48 0,0.264 -0.378,0.48595 -0.84,0.49322 -0.462,0.007 -1.38,0.77888 -2.04,1.7147 -0.66,0.93582 -1.65513,2.17187 -2.21139,2.74679 -2.19262,2.26613 -1.90653,2.47865 3.45352,2.56548 3.53357,0.0572 5.74623,0.35512 7.73378,1.04113 1.53125,0.52852 3.54009,1.11138 4.46409,1.29524 0.924,0.18386 1.896,0.49889 2.16,0.70005 0.264,0.20116 1.96988,0.73429 3.79083,1.18474 1.82096,0.45044 3.65696,0.98285 4.08,1.18313 4.71205,2.23075 10.14451,4.25525 11.56917,4.31145 1.38746,0.0547 7.98284,1.31793 8.47756,1.62368 0.27482,0.16985 2.3138,0.34232 4.53106,0.38328 2.91322,0.0538 4.43078,-0.1407 5.47138,-0.70126 0.792,-0.42664 1.134,-0.77704 0.76,-0.77867 -0.374,-10e-4 -0.53553,-0.14743 -0.35895,-0.324 0.17657,-0.17658 -0.0369,-0.71658 -0.4744,-1.2 -0.43749,-0.48343 -0.61355,-0.87895 -0.39124,-0.87895 0.22231,0 -0.14599,-0.594 -0.81845,-1.32 -0.67245,-0.726 -1.51469,-2.00643 -1.87165,-2.84539 -0.35696,-0.83896 -0.78318,-1.44246 -0.94716,-1.34111 -0.29757,0.1839 -0.33484,0.0455 -0.57222,-2.12492 -0.22448,-2.05251 0.9535,-1.60002 2.30657,0.88601 0.72604,1.33397 1.50174,2.4254 1.72379,2.4254 0.22204,0 0.40371,0.30196 0.40371,0.67103 0,0.36906 1.242,1.97036 2.76,3.55845 2.52876,2.6455 3.0013,2.92955 5.64,3.39031 5.03645,0.87943 12.92147,2.09056 14.04,2.15652 0.594,0.035 1.08,0.2257 1.08,0.4237 0,0.198 0.19742,0.36 0.43872,0.36 0.24129,0 2.74618,1.09103 5.56642,2.42452 2.82025,1.33349 5.37682,2.33944 5.68129,2.23545 0.30446,-0.10398 1.31466,0.2053 2.24488,0.68729 0.93022,0.482 2.79187,1.08508 4.13699,1.34017 2.44577,0.46384 6.99,2.35374 7.2917,3.03257 0.088,0.198 0.412,0.36393 0.72,0.36873 1.62136,0.0253 9.13008,7.45372 13.46162,13.31766 3.19975,4.33175 6.78026,10.59172 6.32089,11.0511 -0.12581,0.1258 0.0215,0.68633 0.32734,1.24562 0.30585,0.55929 0.49646,1.62527 0.42359,2.36884 -0.13096,1.3363 1.01114,4.35937 1.84061,4.87201 0.2356,0.14561 1.23204,-0.49321 2.2143,-1.41961 0.98226,-0.9264 2.13372,-1.71943 2.55879,-1.76231 0.42508,-0.0429 1.59082,-0.12946 2.59056,-0.19241 0.99973,-0.063 2.40373,-0.2793 3.12,-0.48078 0.71626,-0.20148 1.44537,-0.33721 1.62023,-0.30161 0.17487,0.0356 0.52172,-0.52298 0.77079,-1.24126 0.46968,-1.35449 0.0959,-3.20546 -0.65709,-3.25355 -0.2374,-0.0152 -1.83563,-0.68591 -3.55163,-1.49052 -2.37247,-1.11244 -4.21254,-2.56461 -7.68,-6.061 -2.508,-2.52893 -4.49535,-4.73159 -4.41635,-4.8948 0.079,-0.16322 -0.53783,-0.93336 -1.37076,-1.71144 -0.83293,-0.77807 -1.33178,-1.41467 -1.10856,-1.41467 0.22322,0 -0.14418,-0.51003 -0.81646,-1.1334 -0.67227,-0.62337 -1.94162,-2.29737 -2.82077,-3.72 -0.87915,-1.42263 -1.98266,-3.1472 -2.45226,-3.83236 -0.46959,-0.68516 -0.95536,-1.89018 -1.07949,-2.67781 -0.36952,-2.34462 -1.52739,-4.06862 -4.86012,-7.23643 -1.7359,-1.65 -3.28678,-3 -3.44641,-3 -0.15963,0 -0.93371,-0.54145 -1.72017,-1.20322 -0.78646,-0.66176 -1.62765,-1.08101 -1.86929,-0.93167 -0.24165,0.14935 -0.43936,0.068 -0.43936,-0.1808 0,-0.43367 -1.77129,-1.20419 -2.52,-1.09623 -0.198,0.0286 -0.36,-0.11136 -0.36,-0.31091 0,-0.4826 -2.33693,-1.49456 -3.84,-1.66283 -0.66,-0.0739 -1.308,-0.26802 -1.44,-0.43139 -0.45318,-0.56091 -5.24822,-2.82296 -5.98404,-2.82296 -0.40478,0 -0.73596,-0.18319 -0.73596,-0.4071 0,-0.2239 -0.864,-0.79671 -1.92,-1.2729 -1.056,-0.47618 -1.92,-1.03443 -1.92,-1.24055 0,-0.20611 -0.38438,-0.49675 -0.85419,-0.64586 -1.10271,-0.34999 -6.58266,-5.72669 -8.07498,-7.92284 -0.63296,-0.93148 -1.15083,-2.18345 -1.15083,-2.78217 0,-1.59327 1.39531,-1.36004 1.98509,0.33181 0.27233,0.78122 0.91223,1.55277 1.422,1.71456 0.50977,0.1618 0.80517,0.49106 0.65645,0.73169 -0.39117,0.63291 4.53255,5.25336 5.59817,5.25336 0.49406,0 0.89829,-0.17527 0.89829,-0.38949 0,-0.21422 0.46644,-0.89015 1.03653,-1.50207 0.85013,-0.91251 1.01824,-1.6193 0.93483,-3.93051 -0.10875,-3.0139 0.52393,-3.70744 1.47598,-1.61793 0.48769,1.07038 1.9191,1.74746 1.77582,0.84 -0.22478,-1.42361 0.30156,-2.74339 1.90114,-4.76701 2.44973,-3.09913 3.09751,-4.38458 2.69628,-5.35049 -0.57134,-1.37547 -0.74545,-4.79811 -0.25936,-5.09852 0.25474,-0.15744 0.85368,0.52875 1.33097,1.52488 l 0.86781,1.81114 0.25988,-2.4 c 0.14294,-1.32 0.19002,-4.29 0.10464,-6.6 -0.1301,-3.51987 -0.0361,-4.2 0.58012,-4.2 0.44042,0 0.73831,0.43317 0.74271,1.08 0.004,0.594 0.21105,1.4022 0.46001,1.79599 0.81906,1.29554 1.50635,-0.18957 1.57743,-3.40852 0.0672,-3.0444 -1.51764,-9.4487 -2.70761,-10.94124 -0.29545,-0.37058 -0.51068,-0.80258 -0.47829,-0.96 0.079,-0.38416 -0.0558,-0.94945 -0.67762,-2.84121 -0.28836,-0.87724 -0.43966,-1.84924 -0.33623,-2.16 0.10344,-0.31076 0.30181,-1.725095 0.44084,-3.142972 0.13902,-1.417877 0.44318,-2.821877 0.6759,-3.12 0.23273,-0.298123 0.54695,-1.198143 0.69827,-2.000035 0.24572,-1.302049 0.14262,-1.468959 -0.96392,-1.560538 -0.68148,-0.0564 -1.4769,-0.290155 -1.7676,-0.519456 -0.29069,-0.229296 -1.32111,-0.672058 -2.28982,-0.983914 -3.10029,-0.998059 -7.60528,-6.237778 -6.91337,-8.040878 0.39256,-1.022972 0.96558,-0.746607 1.91332,0.922776 0.96729,1.703808 3.60077,4.367625 5.1236,5.182617 0.52934,0.283296 2.50673,0.920525 4.39419,1.416058 2.88456,0.75732 3.80759,0.814224 5.78889,0.356885 1.29642,-0.299251 2.46519,-0.825672 2.59725,-1.169827 0.13207,-0.344151 0.48701,-0.629184 0.78877,-0.633399 0.67803,-0.0095 3.66864,-2.601821 3.66864,-3.180082 0,-0.231729 0.432,-0.691118 0.96,-1.020859 0.84035,-0.524808 0.96,-0.479371 0.96,0.364541 0,0.530237 0.162,0.922128 0.36,0.870878 0.198,-0.05125 2.52,0.164607 5.16,0.479693 2.64,0.315087 5.51444,0.505786 6.38765,0.423768 0.87321,-0.08202 1.69596,0.02611 1.82833,0.240303 0.42678,0.690537 2.57139,0.415377 4.52314,-0.58033 2.35189,-1.199846 2.41,-1.73556 0.19726,-1.818744 -0.93699,-0.03523 -1.92172,-0.198835 -2.18828,-0.363581 -0.40828,-0.252326 -1.74279,-0.416145 -6.52745,-0.801288 -0.70753,-0.05695 -1.20795,-1.203657 -0.67028,-1.535961 0.21364,-0.132034 1.74315,-0.02189 3.39891,0.244756 1.65576,0.26665 3.11374,0.381557 3.23995,0.255341 0.12621,-0.126216 0.74727,-0.03259 1.38012,0.207994 0.63286,0.240614 1.15065,0.256776 1.15065,0.0359 0,-0.220858 0.52383,-0.301421 1.16406,-0.179031 1.52907,0.292296 4.43605,-0.68663 4.79178,-1.61364 0.15439,-0.402355 0.0947,-1.09391 -0.1327,-1.536782 -0.22738,-0.442877 -0.3232,-1.055434 -0.21294,-1.361242 0.11026,-0.305808 -0.0142,-0.688694 -0.2766,-0.850862 -0.284,-0.175522 -0.43995,0.321854 -0.38534,1.228987 0.0519,0.861883 -0.1689,1.613765 -0.50826,1.730861 -0.3464,0.119525 -0.6,-0.190805 -0.6,-0.734199 0,-0.517675 -0.324,-1.210123 -0.72,-1.538774 -0.60887,-0.50532 -0.72,-0.403258 -0.72,0.661229 0,0.798907 -0.26304,1.258771 -0.72,1.258771 -0.396,0 -0.72,-0.419251 -0.72,-0.93167 0,-0.51242 -0.216,-1.065168 -0.48,-1.22833 -0.85448,-0.528096 -0.52634,-2.237755 0.48,-2.50092 0.528,-0.138077 0.96,-0.402408 0.96,-0.587405 0,-0.435566 -4.69872,-1.917197 -6.51761,-2.055178 -0.77131,-0.05851 -1.70344,-0.398784 -2.07139,-0.756158 -0.39062,-0.379392 -1.13964,-0.531653 -1.8,-0.365914 -0.62205,0.15614 -1.131,0.08829 -1.131,-0.150763 0,-0.239054 -1.00179,-0.584875 -2.22621,-0.768485 -3.01482,-0.452102 -5.15781,-1.54451 -6.07466,-3.096604 -0.41954,-0.710223 -1.33144,-1.859962 -2.02645,-2.554973 -1.28164,-1.281639 -5.03268,-3.470775 -5.03268,-2.937106 0,0.160085 -0.324,0.02218 -0.72,-0.30648 -0.396,-0.328651 -0.72,-0.455501 -0.72,-0.281885 0,0.173611 -0.486,0.04406 -1.08,-0.287899 -1.99398,-1.114335 -4.89932,-1.622986 -7.8004,-1.365648 -1.58378,0.140486 -2.82109,0.471432 -2.74957,0.735432 0.0715,0.264 -0.62693,0.546825 -1.55209,0.628502 -1.23337,0.108888 -2.22844,-0.224342 -3.73003,-1.249113 -2.51744,-1.718045 -3.92455,-2.098109 -8.52791,-2.30341 -3.696,-0.164832 -7.18828,0.459048 -7.76624,1.387402 -0.34586,0.555532 2.25894,2.736619 3.26825,2.736619 0.32752,0 1.20356,0.232138 1.94674,0.515856 1.31396,0.501624 1.32505,0.535094 0.40185,1.212912 -1.23947,0.910022 -0.48125,2.245334 1.48073,2.607734 0.93576,0.172848 1.36667,0.526628 1.32122,1.084733 -0.0615,0.754416 1.7792,2.46996 2.94745,2.747117 0.264,0.06263 0.696,0.183711 0.96,0.269064 0.264,0.08535 1.37579,0.384197 2.47065,0.664095 1.09485,0.279902 2.12192,0.85103 2.28238,1.269177 0.25077,0.653496 -0.0625,0.72276 -2.23064,0.493181 -3.42298,-0.362443 -3.71573,-0.448114 -5.64239,-1.65121 -0.924,-0.576988 -2.0265,-1.04988 -2.45,-1.050864 -0.4235,-9.6e-4 -1.5575,1.239058 -2.52,2.755652 -0.9625,1.516593 -1.75861,2.542593 -1.76913,2.28 -0.0224,-0.559541 -1.90545,3.025109 -2.14459,4.082553 -0.0896,0.396 -0.17936,0.774 -0.19956,0.84 -0.0202,0.066 -0.0183,0.257852 0.004,0.426337 0.0226,0.16848 -0.15072,0.43848 -0.38506,0.6 -0.41158,0.283694 -1.41013,3.843436 -2.78957,9.944678 -0.36447,1.612056 -1.19563,4.346933 -1.84701,6.077506 -0.65139,1.730568 -1.05722,3.273615 -0.90185,3.428986 0.15533,0.155371 0.0305,0.282494 -0.27755,0.282494 -0.308,0 -0.56,0.219821 -0.56,0.488481 0,0.61889 -3.04915,3.53968 -3.91221,3.74752 -0.35629,0.0858 -0.71979,0.3558 -0.80779,0.6 -0.088,0.2442 -0.37137,0.444 -0.62972,0.444 -0.25835,0 -1.69835,0.56114 -3.20001,1.24697 -5.22227,2.3851 -5.90246,2.66025 -8.38915,3.39349 -1.37562,0.40562 -2.77112,0.9579 -3.10112,1.22729 -0.33,0.26939 -0.6,0.34065 -0.6,0.15834 0,-0.1823 -0.62735,0.11525 -1.3941,0.66123 -0.76675,0.54598 -1.61532,0.99268 -1.88571,0.99268 -0.27039,0 -0.8079,0.31629 -1.19448,0.70286 -0.38657,0.38657 -0.98755,0.76457 -1.33552,0.84 -0.98171,0.2128 -1.79821,1.04979 -1.50107,1.53871 0.1476,0.24287 -0.0771,0.309 -0.49937,0.14697 -0.42225,-0.16203 -0.8396,-0.079 -0.92745,0.18457 -0.13789,0.41366 -1.05065,0.73777 -2.45063,0.87017 -0.21358,0.0202 -0.24053,0.27586 -0.0599,0.56815 0.21631,0.35 0.0107,0.43058 -0.60223,0.23604 -0.51187,-0.16246 -1.92912,0.005 -3.14945,0.37237 -1.62621,0.48942 -4.31011,0.62088 -10.04944,0.49222 -36.32633,-0.81432 -39.353743,-0.46312 -53.19066,6.17052 -1.716,0.82268 -3.296131,1.45094 -3.511402,1.39613 -1.235457,-0.31453 -8.258836,8.84718 -7.935604,10.35167 0.04368,0.20329 -0.04406,0.69362 -0.195034,1.08962 -0.150946,0.396 -0.650837,2.232 -1.110864,4.08 -0.563976,2.26555 -1.291234,3.8469 -2.232701,4.85478 -1.259937,1.34882 -1.323773,1.56727 -0.653779,2.23727 1.550266,1.55027 4.103659,-0.44903 4.136482,-3.23885 0.01882,-1.59707 1.019088,-5.98038 1.837785,-8.0532 0.286747,-0.726 0.364704,-1.3233 0.173237,-1.32734 -0.191467,-0.004 -0.0673,-0.18548 0.275923,-0.40319 0.343229,-0.21772 0.658066,-0.84744 0.699643,-1.3994 0.04157,-0.55196 0.246759,-0.89777 0.455957,-0.76848 0.209194,0.12929 0.380357,-0.10168 0.380357,-0.51326 0,-0.41158 0.324,-0.74833 0.72,-0.74833 0.396,0 0.666,-0.162 0.6,-0.36 -0.066,-0.198 0.01766,-0.36 0.18589,-0.36 0.16824,0 0.727257,-0.52036 1.242264,-1.15637 0.534547,-0.66014 1.175712,-1.00845 1.49411,-0.81167 0.664795,0.41087 0.748704,1.72804 0.110083,1.72804 -0.246211,0 -0.585763,0.43514 -0.75456,0.96697 -0.168797,0.53184 -0.504878,0.84462 -0.746846,0.69507 -0.241968,-0.14954 -0.318797,0.0438 -0.170727,0.42967 0.165965,0.4325 -0.102859,0.81966 -0.700948,1.00948 -0.797693,0.25318 -1.503284,1.33516 -1.73389,2.65881 -0.02299,0.132 -0.435394,1.04825 -0.91644,2.03612 -0.481046,0.98786 -0.749626,2.12186 -0.596846,2.52 0.152779,0.39813 0.104558,0.72388 -0.107156,0.72388 -0.581347,0 -0.613963,0.65347 -0.742747,14.88 -0.115685,12.78007 -0.156571,13.28602 -1.285137,15.90362 -1.250333,2.90002 -4.134168,6.65003 -5.11705,6.65398 -0.33,0.001 -0.6,0.21008 -0.6,0.46391 0,0.25382 -0.918,0.70854 -2.04,1.01049 -2.664163,0.71696 -6.12,2.7575 -6.12,3.61362 0,0.37091 -0.175165,0.67439 -0.389256,0.67439 -0.514427,0 -1.447934,3.84124 -1.808085,7.44 -0.450315,4.49971 -0.715858,7.09636 -0.859014,8.4 -0.07248,0.66 -0.422347,1.848 -0.777489,2.64 -0.355142,0.792 -0.656586,1.764 -0.669875,2.16 -0.01329,0.396 -0.139389,0.828 -0.280221,0.96 -0.554915,0.52011 -1.45606,2.42423 -1.45606,3.07666 0,0.37932 -0.559201,1.35426 -1.242669,2.16651 -0.683468,0.81225 -1.083432,1.47683 -0.888809,1.47683 0.194623,0 -0.333461,0.65684 -1.173518,1.45964 -0.840058,0.80281 -1.399347,1.66681 -1.242863,1.92 0.156483,0.2532 0.04302,0.46036 -0.252141,0.46036 -0.295161,0 -0.403161,0.216 -0.24,0.48 0.163161,0.264 0.08904,0.48 -0.164716,0.48 -0.628084,0 -1.539899,2.73734 -1.203675,3.61352 0.309554,0.80669 1.406719,0.94112 1.848391,0.22648 0.554178,-0.89668 2.397687,-0.51344 2.886179,0.6 1.266925,2.88775 7.526767,3.68543 9.953821,1.26839 z"
         transform="translate(-33.121173,-2.4444018)"
         id="path387" />
      <path
         style="fill:#aa4400;stroke-width:0.48"
         d="m 74.813626,227.07551 c 0.564508,-0.30211 1.059273,-0.9197 1.099483,-1.37241 0.04022,-0.45271 0.105806,-1.14711 0.145761,-1.54311 0.09827,-0.97385 -0.605635,-1.9694 -3.6415,-5.15031 -1.417556,-1.48528 -2.57737,-2.83109 -2.57737,-2.99069 0,-0.15961 -0.494472,-0.82318 -1.098826,-1.4746 -2.995828,-3.22916 -5.327088,-7.69936 -6.315561,-12.11012 -0.574527,-2.56365 -0.210965,-11.27148 0.495763,-11.87428 0.429533,-0.36637 1.431259,-3.48737 1.195114,-3.72352 -0.501514,-0.50151 -3.307882,0.55704 -4.573671,1.72516 -2.33903,2.15856 -4.790155,6.15744 -4.164801,6.79466 0.40451,0.41219 0.359352,0.51313 -0.178018,0.39798 -0.396,-0.0849 -0.698357,0.0617 -0.671899,0.32572 0.05959,0.59466 1.605782,5.9775 1.999224,6.96 0.34307,0.8567 1.298827,5.09899 2.270952,10.08 0.543633,2.78546 0.596275,4.46507 0.23267,7.42336 -0.370953,3.01807 -0.336614,3.95668 0.163023,4.45632 0.523939,0.52394 0.942672,0.38682 2.431219,-0.79612 0.989045,-0.786 2.053987,-1.32255 2.366539,-1.19234 0.312547,0.13021 1.14935,1.07468 1.859554,2.09883 1.020854,1.47212 1.724534,1.9482 3.36,2.27324 2.544475,0.50571 4.258257,0.41156 5.602344,-0.30777 z"
         transform="translate(-33.121173,-2.4444018)"
         id="path385" />
      <path
         style="fill:#aa4400;stroke-width:0.48"
         d="m 261.05706,191.35584 c 0.29404,-0.35429 0.43877,-0.74001 0.32163,-0.85714 -0.11713,-0.11714 0.15474,-0.24235 0.60417,-0.27825 8.12364,-0.64883 9.17658,-0.88198 10.73772,-2.37764 1.56376,-1.49818 1.62284,-1.75082 0.63942,-2.73423 -0.396,-0.396 -0.72,-0.96418 -0.72,-1.26262 0,-0.29843 -0.18442,-0.42864 -0.40981,-0.28933 -0.2254,0.1393 -0.65277,-0.27995 -0.94971,-0.93168 -0.29695,-0.65172 -0.88128,-1.18494 -1.29852,-1.18494 -0.41724,0 -0.63911,-0.19337 -0.49304,-0.42971 0.21959,-0.35531 -0.58466,-0.95487 -1.64892,-1.22926 -0.132,-0.034 -1.45656,-0.85305 -2.94348,-1.82005 -2.5875,-1.68275 -16.25652,-14.97476 -16.25652,-15.80815 0,-0.22087 -0.648,-1.07964 -1.44,-1.9084 -0.792,-0.82875 -1.44,-1.70519 -1.44,-1.94765 0,-0.24246 -0.50945,-1.12843 -1.1321,-1.96881 -0.62266,-0.84038 -1.72367,-2.7611 -2.44668,-4.26825 -0.72302,-1.50715 -1.83357,-3.30028 -2.4679,-3.98473 -0.63432,-0.68445 -1.15332,-1.42448 -1.15332,-1.64452 0,-0.22004 -0.52035,-0.74101 -1.15634,-1.15773 -0.63599,-0.41672 -1.70809,-1.269 -2.38244,-1.89397 -1.89999,-1.76086 -4.50016,-2.4165 -12.06122,-3.0413 -4.85928,-0.40154 -7.12711,-0.41901 -9.84,-0.0758 -2.65591,0.33599 -6.72,1.75326 -6.72,2.34346 0,0.23919 -0.162,0.41152 -0.36,0.38297 -0.76735,-0.11065 -2.52,0.66778 -2.52,1.11925 0,0.26146 -0.2992,0.36056 -0.6649,0.22023 -0.36569,-0.14033 -1.12207,0.0651 -1.68084,0.45645 -0.55877,0.39138 -1.23754,0.57464 -1.50839,0.40725 -0.31389,-0.19399 -0.40035,0.21833 -0.23847,1.13722 0.35454,2.01245 -0.7624,3.08934 -2.51365,2.42351 -0.94679,-0.35996 -1.34474,-0.33903 -1.48377,0.0781 -0.10449,0.31347 -0.57366,0.95362 -1.04259,1.42256 -0.46894,0.46894 -0.99057,1.28724 -1.15917,1.81846 -0.26757,0.84305 0.39725,1.30678 5.22907,3.64739 5.56217,2.6944 6.50271,3.02376 6.50271,2.27712 0,-0.22243 0.81,-0.81643 1.8,-1.32 0.99,-0.50357 1.908,-1.03701 2.04,-1.18541 0.132,-0.1484 1.536,-0.75966 3.12,-1.35835 1.584,-0.5987 3.26272,-1.29206 3.73049,-1.5408 0.46778,-0.24875 1.81778,-0.58485 3,-0.74689 1.18223,-0.16204 2.14951,-0.43599 2.14951,-0.60876 0,-0.17278 1.51272,-0.34533 3.36161,-0.38345 l 3.36161,-0.0693 3.3011,3.20869 c 7.42474,7.21686 10.47157,10.25783 12.29568,12.27195 1.056,1.16601 3.46156,3.81578 5.3457,5.88838 6.76121,7.43752 8.93325,10.02709 9.40119,11.20836 0.26144,0.66 0.44443,2.57233 0.40665,4.24963 -0.0678,3.00875 0.45034,4.39037 1.64646,4.39037 0.33135,0 0.84303,-0.28988 1.13706,-0.64417 z"
         transform="translate(-33.121173,-2.4444018)"
         id="path403" />
      <path
         style="fill:#aa4400;stroke-width:0.48"
         d="m 94.998197,175.47784 c 0.460565,-0.41681 1.092437,-0.75783 1.404158,-0.75783 0.912605,0 8.717645,-4.36188 8.717645,-4.87188 0,-0.25563 0.19337,-0.34527 0.42971,-0.19921 0.23633,0.14606 0.55518,-0.0614 0.70855,-0.46111 0.15337,-0.39967 1.04,-1.17577 1.9703,-1.72465 0.93029,-0.54889 1.69144,-1.18069 1.69144,-1.40399 0,-0.77778 4.93713,-5.2591 7.2917,-6.6185 l 2.37123,-1.36902 -1.21457,-0.79582 c -1.69427,-1.11012 -2.30628,-1.00717 -3.89974,0.65605 -1.32493,1.38293 -1.56285,1.44815 -5.0098,1.37321 -1.99035,-0.0433 -3.96624,-0.0486 -4.39086,-0.0119 -0.71594,0.0619 -4.57808,5.22669 -4.39548,5.87797 0.0449,0.16014 -0.45559,0.57868 -1.112205,0.93009 -0.656611,0.35141 -1.086062,0.91979 -0.954331,1.26308 0.131726,0.34328 0.08528,0.57274 -0.103219,0.5099 -0.188496,-0.0628 -0.342725,0.0158 -0.342725,0.17476 0,0.30166 -2.761474,3.6421 -4.721179,5.711 -1.748419,1.84584 -1.916371,2.76528 -0.476251,2.6072 0.659025,-0.0723 1.575057,-0.47256 2.035627,-0.88937 z"
         transform="translate(-33.121173,-2.4444018)"
         id="path405" />
      <path
         style="fill:#aa4400;stroke-width:0.48"
         d="m 112.41085,157.14386 c 0.19097,-0.11803 0.23236,-0.51393 0.092,-0.87977 -0.17833,-0.46472 -0.78677,-0.5937 -2.01904,-0.42799 -0.97008,0.13045 -2.2919,0.29304 -2.93737,0.36132 -0.64548,0.0683 -1.24309,0.33263 -1.32804,0.58746 -0.15198,0.45594 5.50498,0.78388 6.19248,0.35898 z"
         transform="translate(-33.121173,-2.4444018)"
         id="path407" />
    </g>
    <path
       style="fill:#000000;stroke-width:0.48"
       d="M 193.23394,68.249872 C 192.14138,68.02169 191.04,67.0137 191.04,66.241941 c 0,-0.341006 0.38843,-0.42335 1.03261,-0.218894 0.84517,0.268248 0.97435,0.17592 0.71166,-0.508642 -0.19714,-0.513734 -0.0266,-1.051565 0.44194,-1.394213 0.64727,-0.473294 0.39391,-0.724588 -1.67166,-1.658112 -4.01637,-1.815172 -2.59955,-3.240864 1.5567,-1.566451 0.74318,0.299405 1.45461,0.544373 1.58095,0.544373 0.12633,0 0.79091,0.520382 1.47683,1.156406 1.39119,1.289986 1.24628,2.612564 -0.33145,3.025148 -0.52667,0.137726 -0.96089,0.60322 -0.96493,1.034428 -0.0114,1.212202 -0.62207,1.806197 -1.6387,1.593884 z"
       transform="translate(-33.121173,-2.4444018)"
       id="path393" />
    <g
       id="layer6"
       inkscape:label="Eye">
      <path
         style="fill:#000000;stroke-width:0.48"
         d="m 208.32,72.552079 c 0,-0.254213 -0.41981,-0.352421 -0.93292,-0.218237 C 206.11875,72.665517 204,70.489922 204,68.855882 c 0,-0.697267 0.37057,-1.895088 0.82349,-2.661821 0.72068,-1.220021 1.10144,-1.394059 3.04991,-1.394059 3.0554,0 4.891,1.620605 4.4528,3.931282 -0.16571,0.873797 -0.47028,1.804718 -0.67684,2.068718 -0.64594,0.825586 -3.32936,2.237736 -3.32936,1.752077 z"
         transform="translate(-33.121173,-2.4444018)"
         id="path389" />
      <path
         style="fill:#ffff00;stroke-width:0.48"
         d="m 208.3504,68.160002 c 0.73773,0 0.50887,-1.447382 -0.27652,-1.748765 -1.85703,-0.712608 -2.83344,2.117112 -1.31389,3.807754 0.82144,0.91393 0.84332,0.901507 0.99041,-0.562205 0.0827,-0.823233 0.35273,-1.496784 0.6,-1.496784 z"
         transform="translate(-33.121173,-2.4444018)"
         id="path391" />
    </g>
    <g
       id="layer5"
       inkscape:label="Antlers"
       style="fill:#ffcc00">
      <path
         style="fill:#ffcc00;stroke-width:0.48"
         d="m 168.78151,23.130951 c -0.10958,-0.182023 1.11774,-0.38847 2.72738,-0.458771 1.60964,-0.0703 3.74755,-0.348877 4.75092,-0.619056 1.00337,-0.270179 4.14538,-0.5914 6.98225,-0.713826 4.03784,-0.174253 5.15927,-0.371233 5.16406,-0.907066 0.003,-0.376461 0.15483,-0.833185 0.33659,-1.014942 0.18176,-0.181756 -0.45539,-1.270607 -1.41589,-2.419669 -0.9605,-1.149062 -1.79077,-2.391801 -1.84505,-2.761643 -0.1433,-0.97637 -1.67489,-3.195978 -2.2053,-3.195978 -0.24922,0 -0.33905,-0.184573 -0.19963,-0.410163 0.13942,-0.225589 -0.38783,-1.1284925 -1.17167,-2.0064514 -0.78385,-0.8779594 -1.42543,-1.395386 -1.42576,-1.1498372 -3.2e-4,0.2455483 -0.50426,-0.139187 -1.11988,-0.8549679 -1.17971,-1.3716691 -4.0792,-2.8386772 -3.35431,-1.6971293 0.20904,0.3292018 0.38859,0.706549 0.39899,0.838549 0.0875,1.1112519 1.54651,5.3262788 2.24295,6.4799998 1.19588,1.981088 1.09492,2.509837 -0.44716,2.342002 -0.726,-0.07902 -2.55827,-0.250695 -4.07172,-0.38151 -1.51344,-0.130816 -3.13344,-0.442141 -3.6,-0.691835 -0.46655,-0.249694 -0.95628,-0.44335 -1.08828,-0.430348 -0.21867,0.02154 -3.13708,-1.508698 -5.34224,-2.801153 -0.49064,-0.2875646 -0.76837,-0.6465447 -0.61718,-0.7977331 0.34036,-0.3403599 -2.4211,-2.425047 -3.40326,-2.5691972 -1.09984,-0.1614231 -0.91479,0.1605763 1.84484,3.2100623 2.71089,2.995632 6.12935,5.719712 7.17768,5.719712 0.34549,0 0.86162,0.233465 1.14697,0.51881 0.28534,0.285346 1.51556,0.555346 2.73382,0.6 1.21826,0.04465 2.216,0.229505 2.2172,0.410779 9.6e-4,0.181273 0.70417,0.397273 1.56217,0.48 1.97278,0.190211 1.86355,0.971202 -0.21072,1.506677 -0.8741,0.225651 -1.8319,0.610529 -2.12844,0.855286 -0.29654,0.244756 -0.90675,0.303955 -1.35602,0.131552 -0.44928,-0.172402 -1.82665,0.130926 -3.06084,0.674062 -1.23419,0.543136 -2.66993,1.124086 -3.19053,1.290999 -0.64102,0.205521 -0.76345,0.41664 -0.3793,0.654057 0.74516,0.460534 2.60345,0.594108 2.34736,0.168729 z"
         transform="translate(-33.121173,-2.4444018)"
         id="path423" />
      <path
         style="fill:#ffcc00;stroke-width:0.48"
         d="m 201.08318,26.989044 c -0.25258,-0.719974 -1.17354,-2.209324 -2.04659,-3.309666 -1.88134,-2.371138 -2.98305,-2.162401 -2.80167,0.530824 0.0967,1.436379 -0.0408,1.709799 -0.85988,1.709799 -1.04862,0 -1.09874,-0.150253 -1.07597,-3.225565 0.009,-1.265375 0.39141,-2.554183 1.01797,-3.434097 0.55163,-0.774694 1.00296,-1.593232 1.00296,-1.818974 0,-0.225742 0.38394,-0.650216 0.8532,-0.943275 1.36025,-0.849489 2.9351,-9.0297904 1.93159,-10.0333044 -0.57039,-0.5703811 -1.8374,0.4653754 -2.77891,2.2716822 -0.55459,1.0640151 -1.32279,2.2490172 -1.70712,2.6333382 -0.38432,0.384321 -0.69876,1.128085 -0.69876,1.652808 0,0.524724 -0.19066,0.836211 -0.42368,0.692195 -0.6651,-0.411056 -2.4538,4.245964 -2.68439,6.989029 -0.11807,1.404536 0.0349,2.917562 0.35277,3.48828 0.30871,0.554336 0.56894,1.167836 0.57829,1.363335 0.0251,0.524819 2.49012,2.72175 3.2243,2.873646 0.34799,0.072 1.24464,0.939876 1.99256,1.928621 l 1.35984,1.79772 1.61137,-1.928676 c 1.39272,-1.666977 1.54905,-2.106298 1.15212,-3.23772 z"
         transform="translate(-33.121173,-2.4444018)"
         id="path421" />
      <path
         style="fill:#ffcc00;stroke-width:0.48"
         d="m 162.40545,39.091494 c -0.041,-0.248321 -0.149,-0.991493 -0.24,-1.651493 -0.091,-0.66 -0.60455,-1.632 -1.14123,-2.16 -3.23823,-3.185877 -3.83542,-5.978482 -2.87377,-13.438405 0.78021,-6.052401 0.67215,-7.933323 -0.51226,-8.916294 -0.36719,-0.304742 -0.56324,-0.722968 -0.43566,-0.929392 0.12757,-0.206424 -0.0908,-0.49917 -0.48529,-0.650548 -0.49852,-0.191304 -0.72844,0.04951 -0.75396,0.789703 -0.0202,0.585714 -0.12652,1.496935 -0.23626,2.024935 -0.10975,0.528 -0.29464,1.608 -0.41088,2.400001 -0.11624,0.792 -0.25293,1.494 -0.30374,1.56 -0.0508,0.066 -0.13002,0.282 -0.176,0.48 -0.18095,0.779267 -0.84588,2.825564 -1.32197,4.068313 -0.44519,1.162072 -0.61597,1.244567 -1.52783,0.738023 -0.56463,-0.31366 -1.20466,-0.519049 -1.42228,-0.45642 -0.21762,0.06263 -0.25914,-0.107057 -0.0923,-0.377078 0.33337,-0.539415 -2.59722,-3.421029 -4.49652,-4.421371 -0.65942,-0.347307 -2.57511,-1.97699 -4.2571,-3.621517 -1.68198,-1.644528 -3.28603,-2.940528 -3.56454,-2.88 -0.27851,0.06053 -0.57464,-0.299798 -0.65806,-0.800723 -0.0834,-0.500924 -0.49144,-1.2505352 -0.90671,-1.6658015 -0.68671,-0.6867067 -0.73881,-0.6156802 -0.57573,0.7849004 0.0986,0.8469611 0.45038,1.8665721 0.78172,2.2658021 0.33133,0.399229 0.45326,0.725871 0.27096,0.725871 -0.18231,0 0.11525,0.627345 0.66123,1.394098 0.54597,0.766754 0.99268,1.582121 0.99268,1.811927 0,0.620597 4.77468,5.433976 5.39029,5.433976 0.29134,0 0.40838,0.121331 0.26008,0.269625 -0.14829,0.148293 0.24771,0.827834 0.88001,1.51009 0.63229,0.682257 1.14962,1.558106 1.14962,1.946333 0,0.734505 -0.30969,0.70849 -3.96,-0.332652 -1.90256,-0.542649 -4.59608,-1.276337 -5.4,-1.470907 -0.264,-0.0639 -2.50445,-0.0906 -4.97877,-0.05933 -3.99668,0.0505 -4.43018,0.139504 -3.88408,0.797499 1.71172,2.062502 8.12661,3.897902 14.50285,4.149492 1.782,0.07031 3.24,0.267794 3.24,0.438846 0,0.171053 0.69023,0.449051 1.53385,0.617775 3.08735,0.617469 5.18615,1.29984 5.18615,1.686141 0,0.797757 8.42253,8.68412 9.12,8.539434 0.396,-0.08215 0.68645,-0.352531 0.64545,-0.600852 z"
         transform="translate(-33.121173,-2.4444018)"
         id="path417" />
      <path
         style="fill:#ffcc00;stroke-width:0.48"
         d="m 177.45667,50.081181 c 0.16216,-0.422592 0.0447,-1.168805 -0.26092,-1.658251 -0.30566,-0.489446 -0.55575,-1.324833 -0.55575,-1.856415 0,-0.531583 -0.2085,-0.966514 -0.46333,-0.966514 -0.25483,0 -1.47443,-0.641219 -2.71021,-1.424932 -1.23579,-0.783713 -2.41495,-1.321068 -2.62035,-1.194123 -0.2054,0.126944 -0.46987,-0.149836 -0.5877,-0.615068 -0.11783,-0.465232 -0.16849,-0.0858 -0.11258,0.843194 0.0559,0.928989 0.35197,2.156788 0.65791,2.728444 0.77046,1.43962 0.71659,1.582485 -0.59678,1.582485 -0.86175,0 -1.28617,-0.381884 -1.68,-1.511627 -0.76548,-2.19585 -0.64556,-5.986699 0.24379,-7.706507 0.47873,-0.92577 0.67256,-2.095483 0.5116,-3.087369 -0.14253,-0.878298 -0.0574,-1.721612 0.18925,-1.87403 0.76441,-0.472426 0.49448,-2.458808 -0.49563,-3.647291 -0.87533,-1.050712 -1.26434,-0.79955 -1.03281,0.666824 0.0312,0.198 -0.12479,0.36 -0.34678,0.36 -0.22199,0 -0.66865,1.184316 -0.99259,2.631815 -0.32394,1.447498 -0.79031,2.756246 -1.03638,2.908328 -0.24608,0.152083 -0.44741,0.760566 -0.44741,1.352185 0,0.59162 -0.2592,1.334872 -0.576,1.651672 -0.3168,0.3168 -0.43015,0.576 -0.25188,0.576 0.17827,0 0.11412,0.552344 -0.14255,1.227432 -0.34548,0.908679 -0.32121,1.137533 0.0934,0.881258 0.3796,-0.234607 0.45802,-0.0801 0.24332,0.479399 -0.82297,2.144635 2.62937,6.484699 6.0211,7.56934 3.08671,0.987096 6.5864,1.029274 6.94923,0.08375 z"
         transform="translate(-33.121173,-2.4444018)"
         id="path413" />
      <path
         style="fill:#ffcc00;stroke-width:0.48"
         d="m 213.36484,51.352173 c 0.16582,-0.268306 0.48493,-0.374458 0.70914,-0.235891 0.52413,0.323932 5.30357,-0.916157 6.7606,-1.754132 0.6141,-0.353179 1.54627,-1.020148 2.07149,-1.482148 0.52522,-0.462001 1.13022,-0.840001 1.34444,-0.840001 0.21422,0 0.38949,-0.324 0.38949,-0.72 0,-0.396 0.19081,-0.72 0.42402,-0.72 0.23321,0 0.53706,-0.432298 0.67523,-0.960662 0.16733,-0.639868 0.0686,-0.847814 -0.29558,-0.622723 -0.30074,0.185866 -0.96083,0.368442 -1.46687,0.405723 -0.50605,0.03728 -1.15863,0.371507 -1.45018,0.742723 -0.29155,0.371217 -0.85331,0.74081 -1.24836,0.821319 -0.39504,0.08051 -0.93672,0.404508 -1.20374,0.72 -0.94343,1.114729 -3.51553,2.694937 -4.86637,2.989734 -1.97872,0.431818 -3.5348,1.264795 -3.24344,1.736227 0.34198,0.553335 1.03306,0.513759 1.40013,-0.08017 z"
         transform="translate(-33.121173,-2.4444018)"
         id="path411" />
      <path
         style="fill:#ffcc00;stroke-width:0.48"
         d="m 202.08,56.959927 c 1.78296,-0.252087 1.79332,-0.257458 2.11578,-1.097775 0.23152,-0.603331 0.0749,-0.71939 -0.69791,-0.517286 -1.34217,0.35099 -2.04999,-1.429412 -1.10715,-2.784864 0.36727,-0.528 0.82561,-0.975807 1.01852,-0.995127 0.19292,-0.0193 1.32276,-0.446942 2.51076,-0.95028 1.188,-0.503333 2.34474,-0.857952 2.57052,-0.78803 0.22579,0.06992 0.65779,-0.06974 0.96,-0.310339 0.30222,-0.2406 2.11548,-0.926256 4.02948,-1.523676 2.08291,-0.650142 3.48,-1.34844 3.48,-1.739383 0,-0.359241 0.23293,-0.653166 0.51763,-0.653166 0.51891,0 4.23682,-3.636394 4.3342,-4.239167 0.0285,-0.176458 0.1065,-1.22054 0.17332,-2.320183 0.0897,-1.476337 -0.0415,-1.93681 -0.50151,-1.760275 -0.34267,0.13149 -0.49196,0.580631 -0.33176,0.998091 0.18753,0.488693 0.0988,0.64007 -0.24913,0.425036 -0.63906,-0.394963 -2.98275,1.508948 -2.98275,2.423059 0,0.348392 -0.162,0.579802 -0.36,0.514246 -0.198,-0.06556 -1.224,0.409325 -2.28,1.055292 -2.05995,1.260097 -5.92741,2.685555 -9.72,3.582578 -0.462,0.109272 -1.17465,0.331747 -1.58366,0.494387 -0.63863,0.253944 -0.71522,-0.163953 -0.54225,-2.958676 0.11079,-1.789913 0.39144,-3.326388 0.62367,-3.414388 0.23223,-0.088 0.42224,-0.938729 0.42224,-1.890509 v -1.73051 l -0.96,1.030439 c -0.528,0.566742 -0.96,1.255471 -0.96,1.53051 0,0.275039 -0.44655,0.50007 -0.99235,0.50007 -1.02281,0 -1.01922,-0.285684 0.0393,-3.120818 0.3801,-1.018128 4.10481,-4.630371 6.43342,-6.239182 4.62193,-3.193239 6.32105,-6.462833 6.09054,-11.720001 -0.028,-0.637999 -0.17687,-1.033999 -0.33086,-0.879999 -0.15401,0.153999 -0.20885,0.351999 -0.12187,0.44 0.087,0.088 -0.32703,0.841344 -0.92,1.674097 -0.59298,0.832754 -1.07887,1.696754 -1.07975,1.92 -0.002,0.45691 -4.79567,5.08713 -8.55103,8.259152 -1.363,1.151287 -2.35951,2.285287 -2.21445,2.52 0.14506,0.234713 0.0581,0.426751 -0.19329,0.426751 -0.4817,0 -1.64573,5.647616 -1.2845,6.232102 0.1157,0.187197 0.0344,1.453555 -0.18069,2.814129 -0.2151,1.360573 -0.20733,2.473769 0.0172,2.473769 0.22458,0 0.40832,0.419253 0.40832,0.931672 0,0.51242 0.2538,1.088532 0.56401,1.280249 0.34407,0.21265 -0.35783,0.75447 -1.8,1.389472 -2.08195,0.916699 -2.65036,0.978508 -4.76401,0.51804 -2.6825,-0.584396 -5.04,-0.462413 -5.04,0.260779 0,0.262046 -0.27,0.322291 -0.6,0.133881 -0.33,-0.188414 0.0323,0.336586 0.80501,1.166664 1.68919,1.814501 1.41148,2.298773 -0.84943,1.481218 -1.75363,-0.634123 -2.71558,-2.073926 -2.71558,-4.06456 0,-0.647578 -0.162,-1.178481 -0.36,-1.179785 -0.198,-0.0013 -0.41788,-0.99856 -0.48862,-2.216124 -0.1858,-3.197911 -2.34761,-7.352153 -4.61138,-8.861427 -2.34979,-1.566638 -3.37007,-1.666319 -2.45733,-0.240079 0.63956,0.999374 1.04847,3.660717 1.42057,9.245553 0.28915,4.339808 1.09994,6.518537 3.17542,8.532857 1.75592,1.704164 1.97182,1.781088 4.3841,1.561988 1.39548,-0.126749 3.16847,-0.33757 3.93998,-0.4685 1.03482,-0.175613 1.9035,0.124704 3.31202,1.145026 1.0501,0.760694 1.75612,1.383077 1.56893,1.383077 -0.18719,0 -0.19683,0.232219 -0.0214,0.516038 0.28816,0.466253 2.74386,0.396835 6.93773,-0.196113 z"
         transform="translate(-33.121173,-2.4444018)"
         id="path409" />
    </g>
  </g>
</svg>
